<?xml version="1.0" encoding="UTF-8"?>
<svg id="brioche" xmlns="http://www.w3.org/2000/svg" viewBox="0 0 512 512">
  <defs>
    <style>
      .cls-1 {
        fill: #f3daa8;
      }

      .cls-2 {
        fill: #fff;
      }

      .cls-3 {
        fill: #883515;
      }

      .cls-4 {
        fill: #f4b84a;
      }

      .cls-5 {
        fill: #e38d20;
      }

      .cls-6 {
        fill: #3c0906;
      }

      .cls-7 {
        fill: #bb5d17;
      }
    </style>
  </defs>
  <g id="brioche-2" data-name="brioche">
    <g id="base">
      <path class="cls-5" d="M442.12,287.18c-1.66-5.98-3.98-12.07-6.78-18.14h.01s30.63-88.1-56.47-140.47c-25.31-15.22-71.91-22.5-113.22-4.38h0s-68.22-49.96-156.52,28.46c-20.27,18.01-29.57,33.68-29.68,80.14-.03,13.82,3.07,28.41,8.69,42.95l-.84-.95c-33.58,25.84-25.53,72.99-14.32,94.55,13.93,26.78,61.95,57.35,108.67,11.79l-3.16-3.56c13.31,7.38,27.3,12.96,41.54,16.14,67.25,15.01,135.42,6.07,163.25-35.03l-1.35-2.7c15.79,10.13,32.19,9.44,46.29,3.9,22.47-8.83,25.47-31,13.9-72.69Z"/>
      <path class="cls-7" d="M423.36,298.18c3.38,10.31,13.97,9.33,15.65,9.37s4-.48,4.31-2.14c3.54-19.06-15.39-47.55-26.75-65.4-3.83-6.01-7.79-11.99-12.67-17.19-4.88-5.2-10.74-9.63-17.48-11.94-1.71-.59-3.86-.94-5.1.37-.84.88-.95,2.22-.89,3.44.3,6.26,3.14,7.62,6.78,11.69,4.02,4.48,7.5,9.67,10.9,14.62,6.92,10.07,13.03,20.73,17.89,31.94,2.74,6.31,4.78,17.36,7.36,25.24Z"/>
      <path class="cls-4" d="M286.93,255.42c-.29-9.23,1.18-25.45,5.87-33.41,2.91-4.93-2.38-11.98-16.36,20-2.4,5.49-10.47,22.05-9.82,25.07.59,2.78,29.73,14.4,30.78,11.55.82-2.22-3.22-4.59-4.43-6.12-3.82-4.81-5.85-10.99-6.05-17.1Z"/>
      <path class="cls-7" d="M333.03,169.34c.53.86,1.63,1.14,2.62,1.35,10.46,2.22,20.77,5.15,30.83,8.77,4.16,1.5,8.55,3.14,12.89,2.32.61-.11,1.24-.29,1.71-.69.67-.58.92-1.53.89-2.41-.08-2.96-2.58-5.23-4.96-6.99-9.42-6.96-20.98-12.14-32.59-10.55-2.37.32-13.8,4.34-11.4,8.21Z"/>
      <path class="cls-7" d="M213.69,202.94c4.22,6.11,12.38,8.58,19.75,7.66,7.37-.92,14.08-4.68,20.18-8.91,6.1-4.23,11.86-9.03,18.44-12.47,5.69-2.98,8.9-2.29,14.94-4.46,27.31-9.81,14.73-21.89,22.08-29.85,8.79-9.5,22.12-14.05,35.06-13.84,12.94.2,25.51,4.77,36.75,11.18,11.06,6.32,21.17,14.5,33.07,19.03.73.28,1.59.53,2.25.12.81-.51.81-1.67.66-2.62-1.38-8.83-7.69-17.73-14.15-23.89-6.99-6.67-37.26-28.68-64.95-31.38-60.07-5.87-83.52,12.25-93.55,20.73-36.97,31.27-37.08,59.21-30.53,68.71Z"/>
      <path class="cls-7" d="M328.07,281.42c9.35,5.7,31.18,26.74,40.85,31.87,6.82,3.62,13,.7,20.64-.43,7.64-1.12,15.26-3.07,22.97-2.62,5.86.35,11.55,2.07,17.13,3.9,4.92,1.61,10.05,3.47,13.46,7.37,1.17,1.34,11.58,10.5-.87,28.98-2.9,4.31-7.04,7.54-11.9,9.36-10.97,4.12-23.02,5.32-34.58,3.43-3-.49-6-1.19-8.75-2.51-4.5-2.15-8.08-5.8-11.56-9.38-5.6-5.76-11.22-11.54-15.92-18.05-4.34-6.01-7.87-12.58-12.45-18.41-6.82-8.68-15.93-15.55-26.16-19.71-2.3-.93-13.34-7.17-11.42-10.45.97-1.66,12.44-7.09,18.55-3.37Z"/>
      <path class="cls-4" d="M200.56,206.34c3.56,5.91,8.07,11.23,13.31,15.72,3.83,3.27,8.13,6.14,12.98,7.47,3.53.97,7.25,1.09,10.9.77,16.25-1.41,30.52-11.19,42.92-21.79,5.53-4.72,10.95-9.73,17.44-12.99,1.09-.55,2.32-1.06,3.51-.76,1.85.47,2.71,2.78,2.28,4.64s-1.76,3.36-3.03,4.8c-14.52,16.48-25.87,35.76-33.24,56.45-.44,1.24-.94,2.58-2.06,3.27-.5.31-1.08.45-1.66.58-5.98,1.27-12.23.37-18.07-1.43-4-1.23-7.86-2.87-11.71-4.51-4.45-1.89-8.9-3.79-13.35-5.68-4.72-2.01-9.48-4.04-13.61-7.08-5.95-4.38-10.28-10.67-13.35-17.39-2.08-4.55-3.64-9.43-3.62-14.43.02-5,1.77-10.14,5.47-13.5,1.44-1.31,3.12-.97,2.9.44-.28,1.8,1.09,3.96,1.98,5.42Z"/>
      <path class="cls-7" d="M181.66,381.13c-46.72,45.57-94.74,14.99-108.67-11.79-11.21-21.56-19.26-68.71,14.32-94.55,19.78,44.59,50.14,80.89,94.35,106.34Z"/>
      <path class="cls-3" d="M117.46,346.61c14.84,13.59,53,43.94,69.66,32.83.86-.57-39.65-20.76-62.04-46.13-22.39-25.37-35.53-58.02-37.02-56.77-11.87,9.88,15.36,57.2,29.4,70.07Z"/>
      <path class="cls-3" d="M393.18,209.3c-36.04-41.75-86.42-32.73-110.82,20.26,30.8-37.6,63.22-54.69,110.82-20.26Z"/>
      <path class="cls-7" d="M190.21,137.97c-13.39.54-32.54,17.23-40.61,27.94-18.29,24.28-22.74,57.9-12.92,86.66s33.38,51.76,61.31,63.74c24.88,10.67,48.89,13.57,70.09,12.86,7.46-.25,10.91,4.73,17.59,3.76,5.6-.81,6.93-9.62,18.35-10.79,10.98-1.12,12.34,5.82,26.35,5.39,22.04-.66,12.07-15.72,14.79-14.09l36.42,44.67c-15.83,45.49-125.19,46.17-143.45,41.04-37.93-10.67-74.28-26.12-102.58-53.54-11-10.65-20.56-22.71-29.21-35.34-17.18-25.11-27.57-59.46-29.15-89.84-2.03-39.12,27.87-67.85,60.77-89.11,32.9-21.26,78.09-36.17,125.77-7.8,1.89,1.12-30.18,23.24-34.05,25.22-15.89,8.11-14.35-11.8-39.47-10.78Z"/>
      <path class="cls-4" d="M187.52,225.84c-10.12,20.77,7.68,36.4,71.87,51.4,22.21,5.19,37.12,27.98,47,34.43,9.79,6.38,19.25,7.45,23.83,8.68,7.15,1.93,18.29-3.37,13.28-7.67-7.15-6.13-29.11-21.72-37.12-26.68-3.84-2.38-7.69-4.76-11.53-7.14-4.13-2.56-8.26-5.12-12.62-7.25-21.73-10.61-48.66-13.18-69.62-25.22-13.55-7.78-22.96-24.91-25.09-20.55Z"/>
      <path class="cls-3" d="M348.92,317.97c-1.02,2.99,22.75,31.85,36.15,39.89,0,0-3.22,10.03-8.49,6.37-40.17-27.86-27.66-46.26-27.66-46.26Z"/>
      <path class="cls-3" d="M84.56,331.88c-1.68-1.71-4.09-3.35-6.32-2.46-1.82.73-2.63,2.84-3.04,4.77-1.74,8.31.57,17.37,6.08,23.84,1.68,1.97,3.72,3.75,6.21,4.46,7.4,2.1,9.51-5.82,7.3-11.22-2.87-7.04-4.74-13.78-10.24-19.39Z"/>
      <path class="cls-3" d="M122.15,387.62c1.03-.14,2.1-.4,2.89-1.07,1.74-1.48,1.47-4.31.4-6.33-1.33-2.5-3.6-4.43-6.18-5.61-2.58-1.18-5.44-1.64-8.27-1.65-1.44,0-2.92.12-4.22.75s-2.37,1.87-2.47,3.31c-.17,2.59,4.05,6.34,6.02,7.76,3.33,2.4,7.78,3.39,11.82,2.84Z"/>
      <path class="cls-3" d="M374.5,319.08c-1.85,2.43-2.55,5.3-2.4,7.45,3.2,15.36,40.7,41.4,63.62,10.51,1.52-2.77.67-5.07,0-6.73,3.63-27.91-53.43-21.44-61.22-11.23Z"/>
      <path class="cls-7" d="M425.12,330.93c.78-.32,1.56-.73,2.04-1.42,1.06-1.51.29-3.66-.95-5.02-1.54-1.69-3.7-2.74-5.95-3.15-2.25-.41-4.57-.19-6.79.37-1.13.29-2.26.68-3.14,1.43s-1.48,1.93-1.27,3.08c.38,2.06,4.43,4.14,6.26,4.85,3.08,1.2,6.76,1.09,9.8-.15Z"/>
      <path class="cls-7" d="M402.14,337.37c.4-.16.79-.37,1.04-.72.54-.77.15-1.86-.49-2.55-.78-.86-1.88-1.39-3.02-1.6s-2.33-.1-3.45.19c-.57.15-1.15.35-1.6.73s-.75.98-.64,1.56c.2,1.05,2.25,2.11,3.18,2.47,1.57.61,3.44.56,4.98-.07Z"/>
      <path class="cls-4" d="M340.07,272.08c8.41,2.34,17.1,5.43,22.85,12,3.62,4.13,6.94,10.02,12.43,9.8,5.06-.2,8.15-5.78,8.89-10.78,1.01-6.88-.47-13.89-2.51-20.54-3.33-10.85-8.39-21.51-16.79-29.13-12.36-11.2-31.1-13.42-46.33-7.26-14.45,5.84-17.82,20.45-7.29,32.51,7.21,8.25,18.68,10.6,28.75,13.4Z"/>
      <path class="cls-4" d="M139.26,316.59c-.11.17-.46.19-1.02.04-.57-.14-1.35-.46-2.29-.98-1.89-1.03-4.41-2.92-7.04-5.69-2.64-2.76-5.35-6.35-8.09-10.41-2.76-4.07-5.55-8.72-8.17-13.77-2.62-5.04-4.79-10.02-6.53-14.62-1.74-4.58-3.08-8.89-3.79-12.64-.73-3.74-.81-6.88-.58-9.01.23-2.14.71-3.27,1.11-3.26.43.01.75,1.15,1.23,3.11.48,1.96,1.17,4.73,2.35,8.07,1.16,3.34,2.82,7.25,4.8,11.62,1.97,4.35,4.22,9.09,6.75,13.97,2.53,4.89,5.09,9.46,7.51,13.58,2.43,4.13,4.65,7.77,6.69,10.66,2.03,2.9,3.89,5.05,5.22,6.56.66.75,1.18,1.36,1.51,1.81.33.46.46.78.35.96Z"/>
      <path class="cls-4" d="M235.69,327.22c-.07.82-2.43,1.34-6.75,1.55-2.15.06-4.77-.13-7.83-.35-1.51-.19-3.13-.44-4.85-.71-.86-.15-1.75-.26-2.65-.45-.89-.21-1.81-.42-2.75-.64-1.88-.44-3.87-.89-5.87-1.57-2.01-.64-4.14-1.24-6.25-2.11-2.13-.82-4.35-1.65-6.54-2.71-1.11-.51-2.23-1.03-3.37-1.55-1.11-.58-2.23-1.18-3.37-1.78-2.3-1.16-4.52-2.57-6.83-3.96-1.16-.69-2.26-1.49-3.4-2.25-1.13-.78-2.3-1.53-3.4-2.39-4.55-3.27-8.94-7.06-13.21-11.18-4.26-4.16-8.11-8.43-11.55-13.02-3.39-4.57-6.22-9.27-8.55-13.92-2.32-4.65-4.19-9.22-5.55-13.61-1.38-4.38-2.38-8.54-2.99-12.38-.67-3.83-.93-7.34-1.04-10.4-.07-3.07.02-5.71.29-7.86.21-2.15.61-3.8.98-4.91.38-1.11.78-1.68,1.19-1.67s.82.59,1.22,1.67c.4,1.08.76,2.66,1.26,4.67.44,2.01,1.02,4.44,1.69,7.23.71,2.78,1.52,5.93,2.64,9.32,1.06,3.41,2.43,7.06,4.06,10.89,1.61,3.84,3.62,7.8,5.95,11.82,2.33,4.01,5.03,8.07,8.15,12,3.09,3.89,6.74,7.83,10.6,11.59,3.9,3.75,7.85,7.28,11.91,10.39.98.82,2.02,1.54,3.03,2.28,1.02.73,1.99,1.51,3.02,2.18,2.05,1.35,4.01,2.76,6.04,3.94,1,.62,1.99,1.23,2.96,1.83,1,.56,1.99,1.1,2.96,1.64,1.93,1.13,3.88,2.06,5.75,3,1.85.99,3.73,1.74,5.51,2.56,1.77.85,3.52,1.49,5.19,2.15.83.34,1.65.66,2.44.98.8.31,1.59.55,2.36.83,1.54.55,2.99,1.06,4.34,1.54,2.76.81,5.13,1.66,7.1,2.29,3.94,1.19,6.15,2.25,6.08,3.07Z"/>
      <path class="cls-4" d="M147.62,236.56c.95,1.64,2.18,3.22,3.91,3.99,2.82,1.25,6.27-.07,8.29-2.39s2.86-5.44,3.33-8.49c1.47-9.55-.23-19.56-4.78-28.08-.95-1.77-2.27-3.66-4.26-3.92-2.37-.32-4.32,1.81-5.51,3.89-5.04,8.78-6.15,26.03-.98,35.01Z"/>
      <path class="cls-4" d="M255.57,318.63c5.83,2.24,12.4,3.62,18.28,1.51,2.93-1.05,5.74-3.22,6.36-6.27.5-2.49-.53-5.02-1.82-7.21-4.18-7.12-11.06-12.28-18.32-16.21-4.36-2.36-9.07-4.39-14.03-4.45-2.42-.03-4.83.41-7.16,1.1-7.35,2.17-14.75,10.12-8.32,17.18,5.52,6.07,17.55,11.48,25.01,14.35Z"/>
      <path class="cls-4" d="M203.43,300.87c1.51-1.15,2.29-3.09,2.31-4.99.03-1.9-.64-3.75-1.59-5.39-1.37-2.37-3.32-4.35-5.46-6.05-2.31-1.84-5.09-3.44-8.04-3.2s-5.78,3.07-5.03,5.93c1.49,5.67,10.94,18.95,17.8,13.7Z"/>
      <path class="cls-3" d="M316.53,354.23c1.68-.77,3.35-1.72,4.43-3.22,1.09-1.49,1.45-3.65.42-5.18-.66-.98-1.75-1.57-2.83-2.05-6.47-2.89-13.83-3.39-20.85-2.42-6.19.85-29.5,5.06-15.84,12.66,10.3,5.73,24.24,5.03,34.66.21Z"/>
      <path class="cls-3" d="M249.77,357.32c.57-.45,1.06-1.06,1.2-1.77.27-1.42-.9-2.7-2.11-3.49-3.04-1.99-7-2.52-10.45-1.38-1.01.33-2.01.83-2.67,1.67-3.82,4.94,11.34,7.08,14.03,4.98Z"/>
      <g>
        <path class="cls-3" d="M231.19,189.59c2.76,2.12,6.7,1.61,10.01.51,10.94-3.66,19.78-13.07,22.74-24.23.75-2.84,1.09-6.08-.52-8.54-1.29-1.97-3.64-3.06-5.98-3.31s-4.7.26-6.97.9c-7.83,2.22-16.02,7.15-19.52,14.86-2.26,4.98-4.72,16,.25,19.81Z"/>
        <path class="cls-3" d="M283.7,171.83c1.28.98,3.1.75,4.62.24,5.06-1.69,9.14-6.04,10.51-11.2.35-1.31.5-2.81-.24-3.95-.6-.91-1.68-1.42-2.76-1.53s-2.17.12-3.22.41c-3.62,1.02-7.4,3.3-9.02,6.87-1.04,2.3-2.18,7.39.12,9.16Z"/>
        <path class="cls-3" d="M275.07,152.03c.76.58,1.84.44,2.74.14,3-1,5.42-3.58,6.23-6.64.21-.78.3-1.67-.14-2.34-.35-.54-1-.84-1.64-.91s-1.29.07-1.91.25c-2.15.61-4.39,1.96-5.35,4.07-.62,1.37-1.3,4.39.07,5.43Z"/>
        <path class="cls-3" d="M191.03,122.29c-1,.95-1.13,2.69-.44,3.89.84,1.46,2.74,1.83,4.41,1.99,6.61.62,13.31.14,19.77-1.4,1.75-.42,3.52-.93,4.98-1.98,1.46-1.05,2.57-2.74,2.5-4.53-.1-2.33-2.16-4.19-4.4-4.83-2.24-.64-18.47-1.01-26.81,6.88Z"/>
      </g>
      <path class="cls-1" d="M339.61,251.33c9.38,3.85,17.98,9.58,25.16,16.73.48.48,1,.99,1.67,1.08.7.1,1.38-.3,1.92-.76,2.43-2.03,3.43-5.33,3.61-8.48.56-9.72-5.89-19.07-14.63-23.35-6.89-3.38-20.55-5.64-27.32-.66-8.34,6.14,4.8,13.48,9.58,15.44Z"/>
      <path class="cls-1" d="M386.25,255.19c.68-.46,1.79-.2,2.97.78,1.18.97,2.38,2.68,3.09,4.81.71,2.14.77,4.23.4,5.71-.36,1.49-1.1,2.37-1.91,2.4-.84.03-1.6-.73-2.29-1.86-.69-1.14-1.33-2.66-1.89-4.36-.57-1.7-.96-3.29-1.09-4.62-.12-1.32.03-2.39.72-2.86Z"/>
      <path class="cls-1" d="M402.56,286.32c.75-.33,1.66-.18,2.43.6.76.75,1.29,2.14,1.13,3.65-.16,1.51-.96,2.76-1.86,3.34-.91.6-1.84.56-2.5.08-.68-.49-1.05-1.24-1.31-1.95-.25-.72-.38-1.4-.3-2.1.07-.7.33-1.34.73-1.99.4-.64.92-1.3,1.69-1.64Z"/>
      <path class="cls-1" d="M318.46,251.94c-.16.8-.81,1.46-1.87,1.64-1.04.19-2.44-.16-3.58-1.13-1.13-.97-1.69-2.31-1.66-3.36.02-1.07.57-1.81,1.34-2.1.78-.29,1.62-.19,2.34-.01.73.19,1.36.46,1.88.92.53.45.89,1.03,1.19,1.72.28.69.51,1.5.34,2.32Z"/>
      <path class="cls-1" d="M357.33,219.73c.2-.8,1.08-1.36,2.42-1.48,1.33-.12,3.1.26,4.77,1.24,1.67.98,2.87,2.34,3.42,3.56.56,1.22.5,2.27-.1,2.84-.61.57-1.6.6-2.71.34-1.12-.27-2.37-.81-3.64-1.56-1.27-.74-2.36-1.57-3.14-2.41-.77-.84-1.23-1.72-1.03-2.53Z"/>
      <path class="cls-1" d="M325.13,208.4c-.06-.82.83-1.66,2.44-2.19,1.6-.53,3.91-.69,6.37-.18,2.45.52,4.51,1.6,5.76,2.73,1.26,1.13,1.74,2.26,1.35,2.98-.39.74-1.53.97-3.01.92-1.49-.05-3.33-.34-5.33-.76-2-.42-3.81-.89-5.19-1.45-1.37-.56-2.32-1.22-2.38-2.06Z"/>
      <path class="cls-1" d="M255.58,207.6c.69.43,1.01,1.39.69,2.6-.31,1.2-1.33,2.61-2.9,3.53-1.57.92-3.3,1.11-4.5.79-1.22-.31-1.89-1.06-1.93-1.88-.04-.84.46-1.6,1.08-2.28.64-.68,1.41-1.29,2.32-1.82.91-.53,1.82-.91,2.72-1.13.9-.21,1.81-.26,2.52.18Z"/>
      <path class="cls-1" d="M272.12,137.43c.02.84-.69,1.59-1.66,2.3-.98.71-2.23,1.39-3.62,2.07-1.39.69-2.7,1.26-3.85,1.61-1.15.34-2.18.44-2.83-.09-.63-.51-.73-1.64-.07-3.01.32-.68.84-1.4,1.53-2.09.35-.33.73-.68,1.17-.97.43-.31.9-.58,1.4-.84.51-.24,1.01-.45,1.52-.6.5-.17,1.01-.26,1.48-.34.96-.13,1.85-.1,2.59.06,1.49.31,2.32,1.08,2.34,1.89Z"/>
      <path class="cls-1" d="M326.09,131.04c-.55.63-1.4.87-2.23,1.02-.84.14-1.68.18-2.56.07-.88-.1-1.69-.33-2.48-.65-.77-.34-1.55-.77-1.94-1.51-.19-.37-.24-.78-.13-1.23.11-.45.4-.91.86-1.33.46-.43,1.09-.78,1.85-1.02.38-.1.79-.2,1.21-.23.43-.05.87-.03,1.32.01.45.06.88.15,1.29.29.41.12.78.31,1.13.5.68.4,1.22.9,1.56,1.42.35.52.53,1.03.53,1.49,0,.46-.14.85-.41,1.16Z"/>
      <path class="cls-1" d="M404.98,187.76c.8.15,1.48.76,1.7,1.77.23.99-.05,2.36-.95,3.47-.9,1.12-2.17,1.69-3.19,1.67-1.04,0-1.78-.53-2.09-1.29-.32-.77-.27-1.6-.15-2.31.13-.72.35-1.33.76-1.83.4-.51.95-.85,1.63-1.13.67-.27,1.47-.5,2.29-.35Z"/>
      <path class="cls-1" d="M172.34,269.81c-.1.81-.87,1.5-2.18,1.71-1.29.22-3.09-.12-4.71-1.18-1.61-1.06-2.64-2.58-2.95-3.85-.33-1.29,0-2.27.7-2.68.72-.42,1.66-.29,2.6.02.95.33,1.94.84,2.94,1.5,1,.65,1.86,1.36,2.54,2.1.66.75,1.16,1.55,1.06,2.38Z"/>
      <path class="cls-1" d="M289.05,321.36c.38.73.26,1.65-.41,2.51-.66.85-1.88,1.6-3.36,1.84-1.48.24-2.88-.09-3.77-.69-.91-.6-1.31-1.45-1.17-2.26.14-.82.72-1.48,1.44-1.98.73-.5,1.59-.84,2.55-1,.96-.16,1.89-.1,2.74.15.84.25,1.6.69,1.99,1.42Z"/>
      <path class="cls-1" d="M122.95,178.59c.8.23,1.45.68,1.92,1.13.47.46.75.91.76,1.39.01.48-.26.94-.71,1.41-.45.46-1.08.94-1.88,1.2-.79.25-1.61.18-2.27-.28-.66-.44-1.13-1.27-1.15-2.23-.02-.96.42-1.8,1.07-2.27.64-.48,1.46-.58,2.25-.35Z"/>
      <path class="cls-1" d="M147.53,150.34c.46.7.2,1.75-.37,2.92-.58,1.18-1.47,2.51-2.52,3.91-1.04,1.4-2.06,2.63-3.03,3.53-.96.88-1.89,1.43-2.7,1.19-.78-.23-1.28-1.28-1.21-2.85.06-1.55.74-3.6,2.12-5.46,1.38-1.85,3.15-3.09,4.62-3.6,1.48-.51,2.63-.34,3.07.34Z"/>
      <path class="cls-1" d="M111.13,239.88c-.74.35-1.71.11-2.6-.76-.88-.85-1.64-2.34-1.84-4.1-.19-1.76.22-3.38.9-4.4.68-1.04,1.57-1.49,2.37-1.31.81.19,1.41.91,1.84,1.82.43.92.72,2.02.85,3.24.14,1.22.09,2.36-.13,3.34-.23.98-.65,1.82-1.4,2.18Z"/>
      <path class="cls-1" d="M148.39,305.65c.02.41-.11.81-.43,1.16-.16.18-.37.35-.62.48-.25.13-.55.26-.88.32-.66.16-1.47.14-2.32-.07-.41-.12-.86-.26-1.27-.49-.43-.21-.83-.49-1.22-.8-.38-.33-.73-.67-1.01-1.05-.3-.36-.52-.77-.71-1.16-.36-.8-.52-1.59-.49-2.27,0-.33.07-.65.16-.92.08-.27.21-.5.35-.69.29-.38.66-.58,1.07-.64.41-.06.83.03,1.22.17.19.07.38.15.58.24.2.09.37.19.57.29.74.41,1.43.85,2.1,1.42.68.56,1.24,1.15,1.78,1.8.13.18.26.33.39.5.12.18.24.35.34.53.21.36.37.76.39,1.17Z"/>
      <path class="cls-1" d="M186.5,336.95c.29.76.02,1.7-.93,2.45-.93.75-2.54,1.2-4.25.91-1.71-.29-3.07-1.26-3.7-2.27-.65-1.02-.59-2-.06-2.62.54-.64,1.39-.89,2.21-1.03.84-.13,1.68-.14,2.56.01.88.14,1.67.44,2.42.84.73.41,1.44.93,1.74,1.71Z"/>
      <path class="cls-1" d="M255.33,328.62c.26.78-.12,1.71-1.08,2.52-.95.81-2.48,1.46-4.25,1.61-1.77.15-3.39-.23-4.46-.86-1.08-.63-1.62-1.49-1.5-2.3.13-.82.85-1.46,1.83-1.93.99-.46,2.24-.77,3.62-.89,1.38-.12,2.66-.03,3.71.26,1.05.29,1.87.8,2.13,1.59Z"/>
    </g>
    <g id="HL">
      <path class="cls-2" d="M258.66,309.39c.83.19,1.7.35,2.52.1,1.39-.42,2.22-1.96,2.19-3.41-.03-1.45-.76-2.8-1.63-3.95-2.53-3.34-18.55-13.49-20.84-5.64-1.83,6.28,13.72,11.97,17.77,12.89Z"/>
      <path class="cls-2" d="M213.84,274.13c.26.32.39.71.36,1.18-.02.23-.08.48-.2.72-.12.24-.28.51-.5.74-.43.49-1.08.9-1.86,1.17-.39.12-.82.23-1.26.25-.45.05-.91.02-1.37-.04-.46-.09-.91-.2-1.32-.38-.41-.16-.79-.39-1.12-.62-.67-.5-1.15-1.09-1.42-1.68-.14-.28-.21-.59-.25-.85-.04-.26-.03-.52.03-.75.1-.45.35-.78.69-1.01.34-.23.75-.35,1.14-.44.19-.03.38-.07.58-.1.18-.02.37-.05.56-.07.74-.08,1.37-.14,2.03-.02.66.09,1.25.33,1.92.64.18.08.35.16.52.24.18.09.36.19.53.27.35.2.69.44.95.76Z"/>
      <path class="cls-2" d="M339.46,258.86c.06.82-.24,1.61-.87,2.16-.62.55-1.57.86-2.58.74-1.01-.13-1.86-.66-2.32-1.35-.48-.69-.58-1.52-.32-2.31.26-.79.81-1.39,1.42-1.79.61-.4,1.28-.6,1.97-.51.68.08,1.29.44,1.78.97.49.54.87,1.25.94,2.08Z"/>
      <path class="cls-2" d="M374.67,303.95c-.26.78-.98,1.35-1.99,1.54-1.01.2-2.29,0-3.5-.64-1.21-.65-2.08-1.61-2.48-2.56-.4-.95-.34-1.86.17-2.51.51-.65,1.35-.94,2.27-.96.92-.02,1.91.22,2.87.74.95.51,1.71,1.2,2.21,1.97.49.77.72,1.63.46,2.42Z"/>
      <path class="cls-2" d="M170.73,243.8c-.4.73-1.07,1.22-1.8,1.46-.73.24-1.53.25-2.28-.04-.75-.29-1.33-.83-1.71-1.5-.37-.67-.54-1.48-.35-2.29.2-.8.75-1.44,1.52-1.79.77-.35,1.76-.38,2.7-.02.95.37,1.65,1.06,1.99,1.83.34.77.32,1.62-.08,2.34Z"/>
      <path class="cls-2" d="M197.31,292.67c-.37.74-1.27,1.14-2.45,1.07-1.18-.06-2.62-.6-3.91-1.64-1.28-1.04-2.12-2.34-2.43-3.47-.31-1.14-.11-2.1.53-2.62.65-.52,1.59-.54,2.59-.26,1,.29,2.07.86,3.08,1.68,1.01.82,1.81,1.74,2.3,2.66.49.92.67,1.84.29,2.58Z"/>
    </g>
    <g id="sparkles">
      <path class="cls-2" d="M329.07,222.81s1.99,7.27,3.96,9.02c2.1,1.86,12.13,3.88,12.13,3.88,0,0-10.03,3.05-12.25,5.29-2.2,2.23-5.08,11.97-5.08,11.97,0,0-1.97-9.79-3.76-11.9-1.69-1.98-8.49-3.96-8.49-3.96,0,0,7.16-2.58,9.06-4.57,1.92-2.01,4.43-9.73,4.43-9.73Z"/>
      <path class="cls-2" d="M218.79,287.34s2.52,9.2,5.02,11.43c2.66,2.36,15.36,4.91,15.36,4.91,0,0-12.7,3.86-15.52,6.7-2.79,2.82-6.43,15.16-6.43,15.16,0,0-2.5-12.41-4.76-15.07-2.14-2.51-10.76-5.02-10.76-5.02,0,0,9.07-3.26,11.48-5.79s5.61-12.32,5.61-12.32Z"/>
    </g>
    <g id="line">
      <g id="line-2" data-name="line">
        <g>
          <path class="cls-6" d="M141.98,377.8c.43-.75,2.76-.15,6.33.49,1.79.33,3.9.65,6.26.86,2.36.21,4.95.3,7.69.24,5.49-.16,10.52-.9,14.27-1.33,3.74-.44,6.21-.52,6.47.28.26.77-1.74,2.28-5.38,3.82-3.63,1.52-8.99,3.05-15.19,3.23-3.1.08-6.06-.21-8.7-.77-2.64-.56-4.95-1.39-6.77-2.3-1.83-.91-3.19-1.87-4.02-2.69-.42-.4-.7-.78-.86-1.08-.16-.31-.19-.55-.09-.73Z"/>
          <path class="cls-6" d="M89.45,273.77c.37.19.47.88.36,1.94-.06.53-.17,1.16-.29,1.88-.14.71-.31,1.51-.49,2.39-.39,1.75-.81,3.82-1.24,6.1-.18,1.15-.43,2.34-.58,3.59-.2,1.24-.33,2.54-.5,3.86-.11,1.33-.25,2.62-.31,3.88-.11,1.26-.11,2.47-.18,3.63-.05,2.32-.07,4.43-.05,6.23,0,.9-.01,1.72-.02,2.44-.03.73-.06,1.37-.11,1.9-.11,1.06-.36,1.72-.76,1.83-.4.11-.92-.35-1.51-1.29-.3-.47-.62-1.06-.91-1.78-.29-.71-.63-1.53-.89-2.46-.57-1.85-1.02-4.12-1.28-6.67-.09-1.28-.21-2.62-.17-4.02-.01-1.4.09-2.84.22-4.32.18-1.47.38-2.91.68-4.27.26-1.37.65-2.67,1-3.9.78-2.44,1.69-4.57,2.63-6.26.44-.86.94-1.59,1.38-2.22.43-.64.86-1.15,1.26-1.55.78-.8,1.38-1.13,1.75-.95Z"/>
        </g>
        <g>
          <path class="cls-6" d="M395.34,158.94c-.27.33-1.97-.59-4.9-2.34-2.95-1.72-7.14-4.27-12.55-6.86-5.41-2.57-12.06-5.2-19.71-6.64-3.81-.73-7.88-1.16-12.08-1.14-4.2-.01-8.54.47-12.85,1.46-4.29,1.04-8.36,2.54-11.98,4.51-3.61,1.95-6.63,4.36-8.48,7.25-1.88,2.9-2.82,6.5-3.87,9.98-1.01,3.48-2.28,7-4.21,9.79-.95,1.39-1.98,2.6-3.03,3.66-1.07,1.04-2.15,1.94-3.22,2.68-2.13,1.51-4.2,2.41-5.92,2.97-1.72.57-3.12.73-4.06.79-.95,0-1.45-.1-1.49-.3-.04-.2.39-.5,1.2-.87.8-.42,1.99-.92,3.41-1.75,1.42-.82,3.09-1.91,4.77-3.46.84-.76,1.67-1.65,2.49-2.63.79-1,1.56-2.1,2.24-3.32,1.36-2.42,2.21-5.37,3.01-8.85.41-1.74.83-3.6,1.41-5.55.58-1.95,1.37-4.02,2.56-6.04,2.4-4.08,6.24-7.18,10.33-9.49,4.09-2.32,8.66-4.06,13.47-5.22,4.82-1.11,9.64-1.59,14.26-1.5,4.63.06,9.06.66,13.18,1.61,8.25,1.89,15.16,5.13,20.57,8.31,2.71,1.59,5.05,3.21,7.04,4.69,2,1.48,3.62,2.87,4.91,4.04,2.56,2.37,3.76,3.9,3.51,4.21Z"/>
          <path class="cls-6" d="M383.45,179.21c-.17.12-.45.08-.83-.1-.39-.18-.84-.52-1.42-.94-.57-.43-1.24-.97-2.02-1.58-.77-.61-1.65-1.3-2.63-2.02-.98-.73-2.08-1.47-3.26-2.25-1.21-.74-2.49-1.53-3.9-2.24-1.41-.71-2.89-1.43-4.49-2.04-1.59-.61-3.26-1.17-5-1.62-1.75-.44-3.48-.76-5.17-.99-1.69-.24-3.34-.32-4.92-.38-1.58-.05-3.08.02-4.5.09-1.41.11-2.73.23-3.94.4-1.21.16-2.31.34-3.28.5-.97.16-1.82.31-2.53.41-.72.09-1.28.17-1.7.14-.42-.02-.69-.12-.78-.31s0-.45.27-.79c.27-.33.7-.76,1.31-1.2.61-.45,1.39-.94,2.34-1.43.95-.49,2.07-.99,3.34-1.44,1.27-.46,2.7-.86,4.26-1.21,1.57-.31,3.26-.58,5.06-.69,1.8-.1,3.71-.13,5.67.06,1.97.18,3.99.51,6.03,1.02,2.03.53,3.97,1.22,5.78,2.01,1.81.78,3.47,1.72,5,2.68,1.53.96,2.88,2.02,4.11,3.04,1.2,1.05,2.26,2.09,3.16,3.11.9,1.01,1.64,1.98,2.23,2.87.6.89,1.05,1.69,1.36,2.38.33.68.5,1.26.57,1.68.07.42.02.7-.15.82Z"/>
        </g>
        <g>
          <path class="cls-6" d="M151.69,329.53c.31-.27,1.15.05,2.45.89.65.42,1.41.97,2.28,1.65.88.66,1.91,1.41,3.02,2.29,1.1.89,2.36,1.83,3.73,2.87.68.52,1.39,1.07,2.12,1.63.75.54,1.53,1.11,2.34,1.7,3.2,2.37,6.95,4.89,11.15,7.56,4.22,2.63,8.97,5.3,14.17,7.89,5.2,2.6,10.92,5.05,17.06,7.23,3.07,1.09,6.25,2.13,9.52,3.05,3.28.94,6.62,1.8,10.18,2.49,3.52.75,7.1,1.51,10.74,2.28,3.66.63,7.38,1.15,11.14,1.76.94.15,1.88.3,2.81.45.93.16,1.87.2,2.8.3,1.87.18,3.72.36,5.56.54,1.84.18,3.67.39,5.48.54,1.81.07,3.61.14,5.4.21,1.79.08,3.55.15,5.31.23.88.06,1.75.04,2.61.02.87-.02,1.73-.03,2.59-.05,3.43-.1,6.8.01,10.06-.34,6.54-.38,12.72-1.15,18.46-2.1,1.43-.27,2.84-.53,4.22-.79,1.38-.26,2.75-.48,4.05-.84,1.31-.32,2.6-.63,3.86-.94,1.26-.31,2.51-.57,3.69-.95,1.19-.35,2.35-.7,3.48-1.03,1.13-.34,2.26-.63,3.3-1.02,2.1-.76,4.14-1.37,5.98-2.1,1.83-.74,3.59-1.35,5.14-2.02,1.55-.69,3.02-1.25,4.3-1.83,1.27-.59,2.44-1.07,3.44-1.51.99-.45,1.85-.81,2.58-1.07,1.42-.56,2.29-.72,2.55-.39.25.33-.13,1.12-1.14,2.36-.52.59-1.19,1.29-2.02,2.08-.84.78-1.85,1.6-3.01,2.54-1.16.92-2.52,1.83-4,2.86-1.49,1.02-3.19,1.97-4.99,3.05-1.81,1.07-3.84,2.01-5.97,3.1-1.06.56-2.19,1.01-3.35,1.51-1.16.49-2.35.99-3.57,1.5-1.21.54-2.5.95-3.81,1.41-1.31.45-2.65.91-4.02,1.38-1.36.5-2.79.86-4.24,1.25-1.45.39-2.93.78-4.43,1.18-6.05,1.45-12.61,2.66-19.56,3.38-3.47.52-7.05.55-10.7.78-.91.04-1.83.09-2.76.13-.92.05-1.85.1-2.78.06-1.86-.03-3.74-.07-5.64-.1-1.9-.04-3.81-.08-5.74-.12-1.92-.13-3.85-.32-5.8-.48-1.95-.18-3.91-.35-5.89-.53-.98-.11-1.98-.15-2.97-.31-.98-.15-1.97-.31-2.96-.46-3.95-.64-7.88-1.21-11.71-1.92-3.79-.87-7.53-1.72-11.21-2.57-3.65-.8-7.31-1.84-10.81-2.97-3.51-1.12-6.89-2.37-10.14-3.69-6.51-2.65-12.49-5.63-17.85-8.81-5.36-3.17-10.15-6.45-14.31-9.7-4.14-3.28-7.72-6.43-10.65-9.41-.73-.74-1.44-1.46-2.12-2.15-.65-.72-1.27-1.42-1.87-2.08-1.19-1.33-2.25-2.57-3.13-3.75-.89-1.17-1.68-2.2-2.31-3.14-.62-.95-1.11-1.78-1.48-2.47-.74-1.39-.97-2.24-.65-2.51Z"/>
          <path class="cls-6" d="M164.71,173.88c.4-.7,3.16-.04,7.03,2.17,1.93,1.1,4.12,2.58,6.4,4.39,2.29,1.83,4.63,3.88,7.03,6.32,2.39,2.44,4.52,5.16,5.93,8.02.71,1.42,1.23,2.9,1.55,4.29.32,1.4.46,2.74.44,3.96-.02,2.46-.68,4.4-1.38,5.56-.71,1.17-1.4,1.61-1.76,1.44-.39-.18-.44-.93-.49-2.06-.05-1.14-.14-2.69-.59-4.52-.23-.91-.54-1.89-.97-2.9-.43-1.02-.96-2.03-1.64-3.09-1.34-2.12-3.2-4.27-5.39-6.51-2.2-2.23-4.44-4.42-6.4-6.36-1.98-1.93-3.77-3.67-5.28-5.14-3.01-2.93-4.93-4.84-4.5-5.57Z"/>
          <path class="cls-6" d="M189.19,142.87c.72-.38,2.93,2.01,5.78,6.41,1.41,2.21,2.97,4.95,4.4,8.19,1.42,3.24,2.69,7.02,3.34,11.18.66,4.15.61,8.27-.13,11.92-.36,1.82-.9,3.54-1.5,5.03-.6,1.48-1.21,2.77-1.77,3.92-1.12,2.28-1.94,4.04-2.49,5.33-.28.64-.52,1.15-.73,1.5-.21.35-.43.55-.63.54-.21,0-.4-.21-.57-.61-.18-.4-.31-1.01-.37-1.79-.14-1.57.16-3.84.8-6.39.31-1.23.66-2.58,1.03-4.02.34-1.39.6-2.81.77-4.35.34-3.07.23-6.52-.34-10.12-.56-3.61-1.53-7.01-2.57-10.11-1.04-3.1-2.14-5.89-3.03-8.28-1.82-4.77-2.74-7.92-1.99-8.32Z"/>
          <path class="cls-6" d="M98.12,229.55c-.4.09-.97-.81-1.67-2.56-.17-.44-.35-.93-.54-1.47-.17-.54-.32-1.14-.48-1.78-.31-1.29-.7-2.76-.9-4.42-.11-.83-.23-1.7-.36-2.61-.11-.91-.14-1.86-.21-2.84-.16-1.97-.1-4.08-.06-6.3.03-1.11.16-2.24.25-3.4.05-.58.11-1.17.16-1.76.09-.59.18-1.18.27-1.78.2-1.19.33-2.42.63-3.64.28-1.22.56-2.46.84-3.71.36-1.23.72-2.45,1.08-3.65.34-1.21.82-2.34,1.23-3.48.21-.57.42-1.13.63-1.68.24-.54.48-1.08.72-1.61.49-1.06.92-2.11,1.44-3.09,1.05-1.96,2.02-3.83,3.12-5.47.54-.83,1.03-1.64,1.57-2.38.55-.73,1.08-1.43,1.58-2.1.98-1.35,2.04-2.45,2.94-3.42.46-.48.87-.93,1.29-1.32.43-.38.82-.72,1.19-1.02,1.46-1.19,2.4-1.7,2.7-1.43.31.27-.03,1.31-.9,2.91-.22.4-.46.84-.74,1.3-.26.48-.54,1-.85,1.56-.61,1.12-1.38,2.32-2.08,3.75-.37.7-.77,1.42-1.17,2.18-.41.76-.77,1.58-1.18,2.41-.85,1.64-1.6,3.47-2.44,5.36-.42.95-.76,1.95-1.16,2.96-.2.5-.4,1.01-.6,1.53-.17.52-.35,1.05-.52,1.59-.34,1.07-.77,2.13-1.06,3.26-.32,1.11-.64,2.25-.97,3.39-.27,1.16-.54,2.3-.81,3.43-.29,1.12-.44,2.26-.67,3.36-.11.55-.21,1.1-.32,1.64-.08.55-.15,1.09-.22,1.62-.14,1.07-.33,2.12-.43,3.15-.18,2.06-.43,4.02-.48,5.87-.04.92-.13,1.82-.14,2.68-.01.86-.03,1.69-.04,2.48-.08,1.59,0,3.01,0,4.29,0,.64-.01,1.23-.02,1.78.02.54.02,1.05.01,1.5-.03,1.82-.23,2.89-.63,2.97Z"/>
        </g>
        <g>
          <path class="cls-6" d="M423.36,298.18c-.4.09-1.21-1.48-2.32-4.37-.28-.72-.57-1.53-.89-2.41-.34-.87-.72-1.82-1.12-2.84-.81-2.03-1.61-4.38-2.72-6.89-.52-1.27-1.07-2.59-1.64-3.97-.57-1.38-1.26-2.77-1.92-4.24-1.27-2.95-2.87-5.99-4.47-9.22-.81-1.61-1.75-3.2-2.65-4.86-.45-.83-.91-1.66-1.37-2.51-.5-.82-1-1.65-1.51-2.49-.51-.84-1.02-1.69-1.53-2.54-.5-.86-1.03-1.72-1.6-2.55-1.11-1.69-2.24-3.41-3.38-5.14-1.21-1.69-2.41-3.36-3.59-5-.57-.83-1.19-1.63-1.81-2.41-.61-.79-1.22-1.57-1.82-2.34-.6-.78-1.2-1.54-1.79-2.3-.62-.73-1.24-1.46-1.85-2.18-1.23-1.43-2.38-2.88-3.59-4.21-2.44-2.65-4.71-5.24-7.01-7.48-1.14-1.14-2.19-2.28-3.27-3.31-1.08-1.03-2.13-2.01-3.12-2.96-1.95-1.94-3.85-3.52-5.46-5.01-.81-.74-1.56-1.43-2.25-2.06-.71-.61-1.36-1.17-1.93-1.69-2.3-2.07-3.48-3.39-3.25-3.74.23-.34,1.85.32,4.61,1.84.69.38,1.45.81,2.28,1.3.82.5,1.67,1.09,2.6,1.71,1.84,1.26,3.98,2.65,6.16,4.43,1.1.87,2.26,1.79,3.46,2.74,1.2.97,2.36,2.06,3.61,3.15,2.52,2.16,5,4.69,7.63,7.33,1.31,1.32,2.55,2.78,3.87,4.22.65.73,1.31,1.46,1.98,2.21.63.77,1.26,1.55,1.9,2.34.64.79,1.28,1.59,1.93,2.39.66.8,1.3,1.62,1.9,2.47,1.23,1.7,2.48,3.42,3.75,5.17,1.17,1.81,2.34,3.59,3.48,5.35.58.87,1.12,1.77,1.63,2.67.52.89,1.03,1.78,1.54,2.66.51.88,1.01,1.75,1.5,2.62.45.89.91,1.77,1.35,2.63.87,1.75,1.79,3.43,2.55,5.13,1.52,3.41,2.99,6.63,4.1,9.75.57,1.55,1.17,3.04,1.65,4.5.46,1.47.9,2.87,1.32,4.22.88,2.67,1.41,5.17,1.93,7.34.25,1.09.49,2.1.66,3.04.15.95.29,1.81.39,2.59.43,3.12.47,4.87.06,4.96Z"/>
          <path class="cls-6" d="M364.38,316.11c-.72.43-2.85-1.76-5.81-5.49-1.45-1.86-3.18-4.06-5.09-6.51-.96-1.2-1.97-2.45-3.03-3.72-1.08-1.25-2.19-2.54-3.39-3.78-.59-.63-1.19-1.24-1.79-1.82-.59-.6-1.2-1.15-1.8-1.7-1.19-1.09-2.4-2.07-3.57-2.98-2.34-1.82-4.63-3.23-6.6-4.38-3.97-2.27-6.7-3.48-6.52-4.33.09-.4.9-.64,2.32-.62,1.42.02,3.44.31,5.86,1.05,2.41.74,5.22,1.92,8.07,3.72,1.42.9,2.87,1.92,4.27,3.08.7.58,1.41,1.18,2.08,1.83.69.63,1.36,1.31,2.02,2,1.33,1.38,2.51,2.82,3.62,4.23,1.08,1.42,2.07,2.82,2.95,4.19,1.77,2.73,3.14,5.29,4.19,7.48,2.09,4.39,2.91,7.32,2.21,7.74Z"/>
          <path class="cls-6" d="M435.72,337.04c.33.25-.04,1.34-1.05,3.17-.51.9-1.29,1.91-2.18,3.1-1,1.09-2.09,2.42-3.56,3.62-.36.31-.73.63-1.1.96-.41.29-.82.59-1.24.89-.43.3-.87.61-1.31.92-.47.27-.96.55-1.45.83-1.96,1.15-4.25,2.03-6.72,2.77-2.49.64-5.18,1.06-7.98,1.1-2.79,0-5.67-.3-8.53-.94-2.85-.67-5.53-1.63-8.02-2.75-2.49-1.12-4.75-2.47-6.81-3.85-2.06-1.4-3.88-2.92-5.5-4.42-1.58-1.55-2.99-3.05-4.12-4.57-1.16-1.49-2.04-2.97-2.75-4.3-.32-.69-.62-1.33-.85-1.93-.21-.62-.4-1.18-.54-1.7-.23-1.06-.35-1.88-.27-2.47.04-.58.17-.89.37-.93.2-.04.47.18.79.61.29.44.74,1.06,1.25,1.85.28.39.59.81.92,1.28.36.45.74.94,1.15,1.46.88,1.01,1.88,2.16,3.11,3.32,1.19,1.19,2.63,2.37,4.17,3.6,1.59,1.19,3.32,2.41,5.24,3.54,1.92,1.11,3.98,2.22,6.2,3.13,2.22.91,4.56,1.71,7,2.29,2.45.54,4.87.84,7.2.91,2.34.04,4.57-.21,6.67-.59,2.08-.49,4.05-1.04,5.8-1.85.44-.19.88-.38,1.31-.56.41-.22.82-.44,1.21-.65.4-.21.79-.42,1.18-.62.37-.24.73-.47,1.08-.69,1.45-.85,2.63-1.84,3.75-2.61,1.03-.89,2-1.6,2.75-2.23,1.49-1.28,2.49-1.9,2.82-1.66Z"/>
          <path class="cls-6" d="M435.72,330.31c-.21-.03-.38-.32-.53-.82-.14-.5-.29-1.22-.51-2.1-.19-.88-.52-1.91-.99-3.02-.48-1.1-1.16-2.26-2.11-3.37-.94-1.12-2.19-2.18-3.68-3.13-1.49-.96-3.26-1.78-5.21-2.5-3.91-1.4-8.57-2.29-13.54-2.7-4.97-.4-9.78-.32-14.11.05-4.33.37-8.2,1.03-11.31,1.86-3.13.82-5.47,1.86-6.86,2.8-.7.47-1.2.89-1.55,1.22-.35.32-.61.52-.82.47-.19-.05-.33-.37-.29-.97.04-.6.35-1.45.98-2.35,1.26-1.83,3.79-3.7,7.1-5.16,3.32-1.48,7.44-2.65,12.09-3.36,4.65-.71,9.83-.98,15.26-.54,5.43.44,10.62,1.59,15.11,3.55,2.24,1,4.3,2.18,6.06,3.6,1.76,1.41,3.22,3.02,4.23,4.71,1.02,1.68,1.61,3.39,1.88,4.9.25,1.51.26,2.82.1,3.85-.14,1.03-.37,1.8-.62,2.3-.24.5-.47.74-.68.71Z"/>
        </g>
      </g>
      <g id="outline">
        <path class="cls-6" d="M255.96,129.58l-.71-1.74c-.36-.55-.71-1.11-1.05-1.68-.76-.9-1.96-2.3-2.91-3.05-7.26-6.01-16.73-8.64-26.14-10.05-6.48-.89-13.11-1.03-19.72-.61-40.15,2.85-77.56,25.2-104.03,54.83-14.57,16.7-16.88,39.09-17.32,60.42-2.17,53.44,39.8,108.43,82.35,137.24,13.84,9.43,29.1,17.2,45.16,22.01,2.83.99,6.81,1.81,9.69,2.58,16.58,3.66,33.49,6,50.47,6.56,38.71,1.08,84.33-6.1,108.05-39.77,0,0,7,4.74,7,4.74-25.35,36.4-73.86,44.83-115.33,43.66-21.05-.81-42.13-3.63-62.4-9.41-27.12-8.16-51.65-23.71-72.41-42.79-33.7-31.19-63.41-77.61-61.65-125.01.4-23.5,3.35-47.64,19.35-66.11,9.24-10.85,20.13-20.03,31.59-28.42,23.12-16.46,50.34-27.95,78.87-29.87,18.01-.98,37.98,1.03,52.62,12.84,3.03,2.57,5.82,5.77,7.78,9.83l-9.25,3.81h0Z"/>
        <path class="cls-6" d="M452.41,325.01c-.46-15.58-4.32-30.86-9.05-45.61-1.07-2.91-2.27-5.87-3.55-8.8l.25.09c.33-.94,7.99-23.44,4.67-52.8-3.07-27.19-16.55-65.49-63.29-93.6-21.63-13-53.42-18.54-82.96-14.44-26.06,3.61-62.63,16.19-88.87,55.61-20.06,30.13-26.36,49.41-21.06,64.47,6.93,19.7,32.48,28.69,73.58,41.71.14.05.2.07.1.04l.24.09.49.18s.99.37.99.37c29.43,11.57,64.98,28.65,85.47,53.03,2.48,3.05,6.16,8.94,8.42,12.28,1.26,1.8,2.77,3.61,4.09,5.4,14.49,18.32,35.58,29.06,59.09,23.19,22-5.17,31.95-18.92,31.38-41.19ZM198,226.6c-4.08-11.6,2.07-28.75,19.95-55.61,24.18-36.32,57.9-47.92,81.92-51.25,32.74-4.54,60.95,3.8,76.43,13.11,34.59,20.8,54.26,49.65,58.46,85.76,1.85,15.85.16,29.72-1.58,38.58-11.35-20.55-25.95-39.12-42.84-55.42-4.24-4.01-8.9-8.13-13.73-11.45-27.11-17.98-61.9-11.04-82.01,13.92-11.62,13.71-18.6,29.86-26.28,45.68-1.95,3.8-4.03,7.61-6.43,11.14-36.36-11.58-58.79-19.97-63.89-34.46ZM433.79,352.61c-4.16,2.99-9.59,4.75-14.56,6.02-16.05,4.04-32.45-1.61-43.93-13.18-2.27-2.04-4.22-4.49-6.26-6.78-1.4-1.92-2.97-3.88-4.32-5.83-1.78-2.7-5.29-8.42-7.21-10.96-19.95-26.33-57.54-45.23-87.54-57.88,3.3-9.19,7.28-18.24,11.64-26.91,5.07-10.22,10.74-20.12,17.94-28.63,7.06-8.43,16.01-15.32,26.47-18.75,15.48-5.18,33.31-3.09,46.85,6.21,1.91,1.22,4.79,3.64,6.53,5.08,20.18,17.76,37.21,39.54,49.73,63.32.52.99,1.02,2.01,1.51,3.03-.01.03-.02.06-.02.07l.07.02c2.26,4.64,4.28,9.54,6.01,14.3,2.82,8.7,5.06,17.78,6.63,26.75,2.43,14.92,4.33,34.38-9.55,44.13Z"/>
        <path class="cls-6" d="M90.36,278.75c-2.84-.23-4.16,1.79-5.97,3.39-1.61,1.6-3.1,3.3-4.51,5.07-8.55,10.79-12.36,24.48-12.56,38.21-.19,13.72,2.74,27.79,8.65,40.19,10.12,19.83,32.45,33.75,54.37,33.68,18.14-.09,34.61-9.88,47.01-22.59,0,0,8.63,8.85,8.63,8.85-6.58,6.06-13.8,11.62-21.78,15.76-30.35,16.57-66.24,7.38-87.73-18.83-17.89-22.16-22.59-61.01-10.48-86.86,2.7-5.81,6.31-11.22,10.64-15.95,1.74-1.88,3.6-3.64,5.52-5.34.95-.86,1.75-1.87,2.12-3.52l6.1,7.92h0Z"/>
      </g>
    </g>
  </g>
</svg>